<svg width="92" height="13" viewBox="0 0 92 13" fill="none" xmlns="http://www.w3.org/2000/svg">
<path d="M21.673 1.62064C19.7606 1.62064 18.1567 3.16289 18.1567 5.13698C18.1567 7.04938 19.6989 8.65333 21.673 8.65333H27.5336V7.35784H21.673C20.4392 7.35784 19.4522 6.37079 19.4522 5.13698C19.4522 3.90318 20.4392 2.91614 21.673 2.91614H27.5336V1.62064H21.673Z" fill="black"/>
<path d="M13 0.338074H0V9.00474H13V0.338074Z" fill="#2F4899"/>
<path d="M6.21954 2.22435L6.47445 2.07141L6.72935 2.22435L6.62738 1.91846L6.93327 1.71455H6.5764L6.47445 1.40866L6.37248 1.71455H6.01562L6.32149 1.91846L6.21954 2.22435Z" fill="#F3EA26"/>
<path d="M4.79218 2.6322L5.04708 2.42827L5.35296 2.6322L5.25101 2.32631L5.50591 2.12239H5.14904L5.04708 1.76553L4.94513 2.12239H4.58826L4.89414 2.32631L4.79218 2.6322Z" fill="#F3EA26"/>
<path d="M4.02742 2.83612L3.92547 3.14201H3.5686L3.82351 3.34592L3.72155 3.65181L4.02742 3.44788L4.28233 3.65181L4.18037 3.34592L4.48626 3.14201H4.12939L4.02742 2.83612Z" fill="#F3EA26"/>
<path d="M3.61957 4.87534L3.92545 5.07927L3.82349 4.77338L4.07839 4.56947H3.72153L3.61957 4.26358L3.5176 4.56947H3.21173L3.46663 4.77338L3.36467 5.07927L3.61957 4.87534Z" fill="#F3EA26"/>
<path d="M4.12939 5.99691L4.02742 5.64005L3.92547 5.99691H3.5686L3.82351 6.20083L3.72155 6.50671L4.02742 6.30279L4.28233 6.50671L4.18037 6.20083L4.48626 5.99691H4.12939Z" fill="#F3EA26"/>
<path d="M5.14904 7.01651L5.04708 6.71063L4.94513 7.01651H4.58826L4.89414 7.22044L4.79218 7.5773L5.04708 7.37338L5.35296 7.5773L5.25101 7.22044L5.50591 7.01651H5.14904Z" fill="#F3EA26"/>
<path d="M6.5764 7.42437L6.47445 7.0675L6.37248 7.42437H6.01562L6.32149 7.62829L6.21954 7.93417L6.47445 7.73025L6.72935 7.93417L6.62738 7.62829L6.93327 7.42437H6.5764Z" fill="#F3EA26"/>
<path d="M8.0039 7.01651L7.90194 6.71063L7.79998 7.01651H7.44312L7.749 7.22044L7.64703 7.5773L7.90194 7.37338L8.15684 7.5773L8.05489 7.22044L8.36076 7.01651H8.0039Z" fill="#F3EA26"/>
<path d="M9.02349 5.99691L8.92153 5.64005L8.81958 5.99691H8.46271L8.76859 6.20083L8.66663 6.50671L8.92153 6.30279L9.22741 6.50671L9.12545 6.20083L9.38035 5.99691H9.02349Z" fill="#F3EA26"/>
<path d="M9.73728 4.56945H9.43139L9.32944 4.21259L9.22747 4.56945H8.87061L9.12551 4.77337L9.02356 5.07926L9.32944 4.87533L9.58434 5.07926L9.48238 4.77337L9.73728 4.56945Z" fill="#F3EA26"/>
<path d="M8.66663 3.65181L8.92153 3.44788L9.22741 3.65181L9.12545 3.34592L9.38035 3.14201H9.02349L8.92153 2.83612L8.81958 3.14201H8.46271L8.76859 3.34592L8.66663 3.65181Z" fill="#F3EA26"/>
<path d="M7.90194 1.76553L7.79998 2.12239H7.44312L7.749 2.32631L7.64703 2.6322L7.90194 2.42827L8.15684 2.6322L8.05489 2.32631L8.36076 2.12239H8.0039L7.90194 1.76553Z" fill="#F3EA26"/>
<path d="M45.3621 2.91612C46.7193 2.91612 47.7063 3.71809 47.7063 5.13697C47.7063 6.55585 46.7193 7.35782 45.3621 7.35782C44.19 7.35782 41.2905 7.35782 40.2418 7.35782C40.2418 6.49416 40.2418 3.77979 40.2418 2.91612C41.2905 2.91612 44.19 2.91612 45.3621 2.91612ZM38.9463 1.62062V8.59163C38.9463 8.59163 43.5731 8.59163 45.4855 8.59163C47.5212 8.59163 49.0018 7.04937 49.0018 5.07528C49.0018 3.16289 47.5829 1.55893 45.4855 1.55893C43.6348 1.62062 38.9463 1.62062 38.9463 1.62062Z" fill="black"/>
<path d="M82.623 1.62062H81.9445V12.108H83.2399C83.2399 12.108 83.2399 4.02655 83.2399 2.85443C84.227 2.85443 87.2498 2.85443 88.4219 2.85443C89.9025 2.85443 90.7045 3.77979 90.7045 5.07528C90.7045 6.30909 89.9025 7.29613 88.4836 7.29613C87.0647 7.29613 84.2887 7.29613 84.2887 7.29613V8.59163C84.2887 8.59163 86.3245 8.59163 88.4836 8.59163C90.5811 8.59163 92 7.04937 92 5.07528C92 3.16289 90.5194 1.55893 88.4836 1.55893C86.5095 1.62062 82.623 1.62062 82.623 1.62062Z" fill="black"/>
<path d="M31.7286 7.35784C30.3714 7.35784 29.3844 6.55586 29.3844 5.13698C29.3844 3.7181 30.3714 2.91614 31.7286 2.91614C32.9007 2.91614 37.4658 2.91614 37.4658 2.91614V1.62064C37.4658 1.62064 32.839 1.62064 31.5435 1.62064C29.5077 1.62064 28.0272 3.16289 28.0272 5.13698C28.0272 7.11107 29.446 8.65333 31.5435 8.65333C32.7773 8.65333 37.4658 8.65333 37.4658 8.65333V7.35784C37.5275 7.35784 32.9624 7.35784 31.7286 7.35784ZM30.4948 4.45839H35.8618V5.75389H30.4948V4.45839Z" fill="black"/>
<path d="M53.752 7.35784C52.3948 7.35784 51.4077 6.55586 51.4077 5.13698C51.4077 3.7181 52.3948 2.91614 53.752 2.91614C54.9241 2.91614 59.4891 2.91614 59.4891 2.91614V1.62064C59.4891 1.62064 54.8624 1.62064 53.5669 1.62064C51.5311 1.62064 50.0505 3.16289 50.0505 5.13698C50.0505 7.11107 51.4694 8.65333 53.5669 8.65333C54.8007 8.65333 59.4891 8.65333 59.4891 8.65333V7.35784C59.4891 7.35784 54.9858 7.35784 53.752 7.35784ZM52.5181 4.45839H57.8852V5.75389H52.5181V4.45839Z" fill="black"/>
<path d="M77.1943 7.35784C75.7137 7.35784 75.467 7.35784 73.9864 7.35784C72.5675 7.35784 71.6422 6.55586 71.6422 5.13698C71.6422 3.7181 72.5675 2.91614 73.9864 2.91614C75.4053 2.91614 75.7137 2.91614 77.1943 2.91614C78.6132 2.91614 79.5385 3.7181 79.5385 5.13698C79.5385 6.55586 78.6749 7.35784 77.1943 7.35784ZM77.3177 1.62064C75.2819 1.62064 75.8988 1.62064 73.863 1.62064C71.6422 1.62064 70.3467 3.16289 70.3467 5.13698C70.3467 7.11107 71.7656 8.65333 73.863 8.65333C75.9605 8.65333 75.1585 8.65333 77.3177 8.65333C79.4769 8.65333 80.834 7.11107 80.834 5.13698C80.834 3.16289 79.3535 1.62064 77.3177 1.62064Z" fill="black"/>
<path d="M62.0185 12.108V5.07528C62.0185 3.65641 63.0055 2.85443 64.3627 2.85443C65.5349 2.85443 70.0999 2.85443 70.0999 2.85443V1.55893C70.0999 1.55893 65.4731 1.55893 64.1777 1.55893C62.1419 1.55893 60.6613 3.10119 60.6613 5.07528V12.0463H62.0185V12.108ZM63.0672 4.45838H68.4343V5.75387H63.0672V4.45838Z" fill="black"/>
</svg>
